<svg version="1.2" xmlns="http://www.w3.org/2000/svg" viewBox="0 0 811 573" width="811" height="573">
	<style>
		.s0 { fill: #ffffff } 
	</style>
	<g id="Folder 1">
		<path id="Layer 2" class="s0" d="m548.68 262.82c0 0 86.31 3.9 79.57 3.9l-30.63-89.93c0 0-2.12-10.52 2.2-18.67 3.44-6.51 12.56-12.69 12.56-12.69l-98.96 0.12c0 0 35.38 117.27 35.26 117.27z"/>
		<path id="Layer 1" class="s0" d="m589.6 393.08l105.06-0.29 116.34-247.34-81.97-0.1-45.03 99.39c0 0-2.59 9.74 0.67 16.59 3.54 7.46 13.84 11.59 13.84 11.59l50.67 4.04-2.8 5.84-45.53 5.77c0 0-8.54 0.65-16.37 3.35-8.28 2.85-15.76 7.98-15.76 7.98 0 0-6.9 4.99-11.97 11.39-6.22 7.86-9.84 17.74-9.84 17.74l-13.48-31.18-74.17 0.83z"/>
		<path id="Layer 4" class="s0" d="m117.38 395.44l112.34 0.46 39.98-75.73-104.51 60.68c0 0-10.75 4.35-21.79 7.79-12.82 3.99-26.02 6.8-26.02 6.8zm304.03 2.27h138.22l-13.48-6.74c0 0-8.73-10.37-15.24-21.96-8.02-14.29-12.85-30.35-12.85-30.35 0 0-3.18-4.26-3.76-8.84-0.59-4.66 1.51-9.65 1.51-9.65l10.11-13.49h-84.28c0 0-5.03 5.05-5.97 10.72-1.01 6.09 2.6 12.88 2.6 12.88l10.11 26.97c0 0 2.69 5 2.71 10 0.03 5.11-2.71 10.23-2.71 10.23l-13.49 16.86zm-252.84 175.3l112.91-224.53c0 0 3.36-6.35 3.37-12.72 0-5.98-2.99-11.98-2.99-11.98 0 0-7.19-11.61-17.4-18.52-13.04-8.82-30.69-10.48-30.69-10.48l-233.76-8.32 230.28-7.25c0 0 37.51-2.34 69.21-16.91 37.11-17.07 66.58-50.25 66.58-50.25l132.87-212.15c0 0-22.35 44.99-46.05 89.27-23.99 44.83-27.32 43.16-49.36 88.92-10.46 21.73-19.21 44.31-19.21 44.31 0 0-4.43 15.19-0.01 27.15 4.27 11.54 16.87 20.05 16.87 20.05l23.6 6.74-19.94-54.13 50.28-94.2 43.82 141.59c0 0 2.36 4.7 6.01 7.87 4.5 3.91 10.85 5.61 10.85 5.61l151.71 3.38-235.99 6.74c0 0-45.41 4.5-81.29 25.55-32.47 19.05-56.93 51.99-56.93 51.99z"/>
	</g>
</svg>